<svg width="16" height="15" viewBox="0 0 16 15" fill="none" xmlns="http://www.w3.org/2000/svg">
<g clip-path="url(#clip0_3002_62882)">
<path d="M15.4592 2.92898L10.6113 7.31195L15.4592 11.6947C16.1803 12.3468 16.1803 13.4032 15.4592 14.0553C15.0989 14.381 14.6265 14.544 14.1544 14.544C13.6814 14.544 13.209 14.3813 12.849 14.0553L8.00004 9.67207L3.15143 14.0553C2.79118 14.381 2.31876 14.544 1.8462 14.544C1.37378 14.544 0.901677 14.3813 0.541103 14.0553C-0.18 13.4035 -0.18 12.3471 0.541103 11.6947L5.38888 7.31191L0.540827 2.92898C-0.180276 2.2771 -0.180276 1.22049 0.540827 0.568613C1.26179 -0.0827668 2.42992 -0.0827668 3.15116 0.568613L7.99999 4.95159L12.8485 0.568613C13.5698 -0.0827668 14.7381 -0.0827668 15.4589 0.568613C16.1803 1.22049 16.1803 2.2771 15.4592 2.92898Z" fill="#858FA4"/>
</g>
<defs>
<clipPath id="clip0_3002_62882">
<rect width="16" height="14.464" fill="white" transform="translate(0 0.0800781)"/>
</clipPath>
</defs>
</svg>
